<svg width="47" height="45" viewBox="0 0 47 45" fill="none" xmlns="http://www.w3.org/2000/svg">
<path d="M23 11.0813C16.3909 11.0813 11 16.2155 11 22.5459C11 28.9013 16.365 34.0355 23 34.0355C29.635 34.0355 35 28.8989 35 22.5459C34.9741 16.2155 29.6091 11.0813 23 11.0813ZM23.1296 29.8983C18.8272 29.8983 15.3542 26.5586 15.3542 22.4463C15.3542 18.3339 18.8272 14.9942 23.1296 14.9942C27.432 14.9942 30.905 18.3339 30.905 22.4463C30.905 26.5586 27.432 29.8983 23.1296 29.8983Z" fill="black"/>
<path d="M32.7694 0H14.2566C6.39721 0 0 6.00855 0 13.3961V30.9293C0 38.3168 6.39721 44.3254 14.2566 44.3254H32.7433C40.6288 44.3254 46.9999 38.3168 46.9999 30.9293V13.3961C47.026 6.00855 40.6288 0 32.7694 0ZM43.0833 32.0128C43.0833 36.7654 38.9838 40.6316 33.9444 40.6316H13.0555C8.0161 40.6316 3.91666 36.7654 3.91666 32.0128V12.3126C3.91666 7.55994 8.0161 3.69378 13.0555 3.69378H33.9444C38.9838 3.69378 43.0833 7.55994 43.0833 12.3126V32.0128Z" fill="black"/>
</svg>
