<svg width="57" height="45" viewBox="0 0 57 45" fill="none" xmlns="http://www.w3.org/2000/svg">
<path d="M57 5.27214C54.9068 6.1478 52.649 6.7538 50.2898 7.02952C52.706 5.63574 54.5522 3.45113 55.4262 0.848391C53.1683 2.12098 50.6698 3.05724 48.0035 3.54506C45.8692 1.36348 42.8323 0 39.4693 0C33.0062 0 27.7748 5.02974 27.7748 11.2109C27.7748 12.0896 27.8793 12.9349 28.082 13.753C18.3508 13.2713 9.74067 8.84447 3.971 2.05735C2.964 3.69353 2.38767 5.63574 2.38767 7.69308C2.38767 11.5745 4.44917 14.9983 7.5905 16.9981C5.66833 16.9345 3.86333 16.4497 2.2895 15.6013V15.7225C2.2895 21.1431 6.32383 25.6881 11.6723 26.7243C10.6907 26.9637 9.65517 27.0849 8.59117 27.0849C7.8375 27.0849 7.10917 27.0243 6.39033 26.9061C7.885 31.3571 12.198 34.5992 17.3185 34.6901C13.3158 37.6595 8.27133 39.4471 2.793 39.4471C1.84617 39.4471 0.918333 39.4168 0 39.2956C5.1775 42.4771 11.324 44.3254 17.9297 44.3254C39.4377 44.3254 51.205 27.2697 51.205 12.5107C51.205 12.0259 51.1923 11.5411 51.1638 11.0563C53.4502 9.48077 55.4293 7.50826 57 5.27214Z" fill="black"/>
</svg>
